<svg width="35" height="34" viewBox="0 0 35 34" fill="none" xmlns="http://www.w3.org/2000/svg">
<mask id="mask0_1_1056" style="mask-type:luminance" maskUnits="userSpaceOnUse" x="0" y="0" width="35" height="34">
<path d="M35 0.25H0.125V34H35V0.25Z" fill="white"/>
</mask>
<g mask="url(#mask0_1_1056)">
<path d="M35 33.9999H0.125C1.65423 33.2451 3.11995 32.3627 4.50726 31.3615C7.11772 29.4778 10.6613 27.588 14.7365 27.2258C21.6642 26.61 30.2457 31.7057 35 33.9999Z" fill="black"/>
<path d="M17.5593 22.2569C16.0828 18.7129 13.4251 17.1733 12.0195 17.0344C11.6168 17.0078 11.213 17.0659 10.8331 17.2051C10.4532 17.3442 10.1052 17.5615 9.8106 17.8435C10.0325 17.5686 10.2732 17.3103 10.5312 17.0707C10.1591 16.7265 9.7221 16.3944 9.7221 16.3944C10.1119 16.5816 10.5371 16.8292 10.6906 16.9258C11.0942 16.5659 11.5247 16.2389 11.9782 15.9477C11.5899 15.6268 11.1815 15.3324 10.7556 15.0662C11.2898 15.247 11.806 15.4795 12.2971 15.7605C12.9061 15.4039 13.5397 15.0932 14.1929 14.8307C13.9385 14.6143 13.6723 14.4127 13.3956 14.227C13.7778 14.3646 14.149 14.5321 14.5059 14.7281C15.209 14.4557 15.9292 14.2318 16.6616 14.0579C13.0353 13.0255 10.2004 14.1787 9.2082 15.2232C8.80527 15.654 8.5503 16.207 8.4818 16.799C8.0491 15.7912 7.29274 14.9648 6.33791 14.4564C4.17631 13.5326 2.01471 15.3439 2.01471 15.3439C2.91305 15.1663 3.84309 15.276 4.67832 15.6579L5.48154 15.1205L4.93819 15.7786C5.78858 16.2274 6.5576 16.8217 7.212 17.5355C6.66798 17.1948 6.02417 17.0602 5.39295 17.1552C3.99323 17.3906 1.44774 19.1174 0.213379 22.758C0.756819 22.2569 1.33517 21.7969 1.94384 21.3815C1.99376 20.9741 2.07071 20.5707 2.17417 20.174C2.16955 20.5168 2.18533 20.8595 2.22142 21.2004C2.80448 20.7975 3.41651 20.4402 4.05229 20.1317C4.10362 19.5588 4.21045 18.9925 4.37121 18.4412C4.33717 18.9518 4.33717 19.4641 4.37121 19.9747C4.85871 19.7572 5.36229 19.5796 5.87724 19.4434C5.87724 19.2563 5.9304 18.7612 6.00127 18.3265C6.00127 18.3265 6.00127 18.8819 6.08395 19.3891C6.27688 19.3448 6.47375 19.3086 6.67456 19.2804C5.96583 19.9928 5.25121 21.5324 5.31617 24.841C5.31617 24.841 5.7355 23.8569 6.27295 22.8305C6.16899 22.4181 6.11348 21.9945 6.10758 21.5686C6.10758 21.5686 6.26114 22.0698 6.43241 22.5226C6.59187 22.2207 6.76315 21.9188 6.92851 21.6592L6.96986 21.5928C6.9108 21.2668 6.80449 20.6147 6.77496 20.1619C6.77496 20.1619 6.94623 20.7656 7.14704 21.3151C7.5501 20.6797 8.02377 20.0942 8.55857 19.5702C11.8541 25.3542 11.5116 33.7766 11.5116 33.7766L13.059 33.6377C12.6337 25.6078 10.0823 20.82 9.1315 19.2925C9.8989 19.15 10.6851 19.15 11.4525 19.2925C11.4525 18.7793 11.4525 18.2238 11.4525 18.2238C11.5529 18.6525 11.6238 19.1476 11.6474 19.3287C12.1712 19.4282 12.6866 19.5695 13.1889 19.7513C13.1998 19.2331 13.1761 18.7146 13.118 18.1997C13.3154 18.7392 13.4598 19.2974 13.5492 19.866C14.2143 20.1201 14.8599 20.4248 15.4804 20.7777C15.4997 20.4359 15.4997 20.0932 15.4804 19.7513C15.61 20.1461 15.7126 20.5496 15.7875 20.9588C16.4079 21.3475 17 21.7813 17.5593 22.2569Z" fill="black"/>
<path d="M8.57051 15.821C9.421 10.4415 12.5512 7.41063 14.4411 6.72838C14.9839 6.55036 15.5569 6.48904 16.1241 6.54826C16.6912 6.60749 17.2402 6.78598 17.7366 7.07253C17.3409 6.77967 16.9243 6.51732 16.4905 6.28764C16.8862 5.68389 17.3764 5.08013 17.3764 5.08013C16.9039 5.47257 16.4078 5.96161 16.2247 6.14274C15.5538 5.79442 14.8566 5.50166 14.1399 5.26729C14.5625 4.68745 15.0222 4.13683 15.516 3.61904C14.8417 4.04042 14.2106 4.5299 13.632 5.08013C12.6751 4.8067 11.7 4.60491 10.7144 4.47637C10.9895 4.08203 11.2853 3.70313 11.6003 3.34131C11.1254 3.66889 10.6734 4.03001 10.2478 4.42203C9.2117 4.29025 8.16733 4.23778 7.12354 4.26506C11.7598 1.5723 16.0298 2.17002 17.7307 3.26886C18.4253 3.72057 18.9611 4.38672 19.2604 5.17069C19.6029 3.68545 20.2408 2.09757 21.4161 1.21005C24.0384 -0.782351 27.6056 0.944399 27.6056 0.944399C26.3157 1.01303 25.078 1.48749 24.062 2.30285L22.7804 1.84399L23.749 2.56246C22.7304 3.46886 21.8714 4.5471 21.2094 5.7503C21.8478 5.11047 22.6818 4.71405 23.5718 4.62731C25.5798 4.47637 29.655 5.94954 32.543 10.5139C31.6252 10.0029 30.674 9.5571 29.6963 9.1796C29.497 8.631 29.2582 8.0982 28.9817 7.58572C29.1006 8.0549 29.1933 8.5306 29.2593 9.0106C28.3237 8.6632 27.3643 8.3867 26.3889 8.1834C26.131 7.41393 25.7965 6.67348 25.3908 5.97369C25.5977 6.66598 25.7575 7.37204 25.8692 8.0868C25.1278 7.95561 24.3773 7.88495 23.6249 7.87552C23.5422 7.62798 23.3237 6.95781 23.0816 6.39028C23.0816 6.39028 23.241 7.16309 23.3237 7.87552C23.0461 7.87552 22.7331 7.87552 22.491 7.92382C23.6722 8.6604 25.19 10.52 26.194 15.0844C26.194 15.0844 25.2904 13.8769 24.2155 12.6694C24.2242 12.0597 24.1587 11.4513 24.0206 10.8581C24.0206 10.8581 23.9793 11.6007 23.8966 12.2829C23.5777 11.9267 23.2469 11.5766 22.928 11.2686L22.8512 11.1962C22.8512 10.7253 22.7508 9.8015 22.6386 9.1676C22.6386 9.1676 22.6386 10.0611 22.5087 10.8822C21.7572 10.1646 20.9268 9.5385 20.0341 9.0166C17.4413 18.073 20.6896 29.5444 20.6896 29.5444L18.5162 29.8945C16.4491 18.7431 18.3568 11.2626 19.1541 8.8295C18.0547 8.8928 16.975 9.1544 15.9648 9.6023C15.7522 8.914 15.5928 8.1412 15.5928 8.1412C15.598 8.6718 15.6295 9.2017 15.6873 9.7291C14.9994 10.0439 14.3377 10.4154 13.7087 10.84C13.5304 10.1373 13.3982 9.4233 13.313 8.7027C13.2239 9.5045 13.212 10.3134 13.2776 11.1177C12.4664 11.7075 11.6985 12.3573 10.9802 13.0618C10.8503 12.5951 10.7458 12.1214 10.6671 11.643C10.6274 12.2279 10.6274 12.815 10.6671 13.3999C9.9112 14.1533 9.2104 14.9625 8.57051 15.821Z" fill="black"/>
</g>
</svg>
